<svg id="sloy111" xmlns="http://www.w3.org/2000/svg" viewBox="0 0 193.8 54.1"><style>.st0{fill:#ff00b4}.st1{fill:#fff100}.st2{fill:#00adef}.st3{fill:#e70f88}.st4{fill:#020202}</style><path class="st0" d="M4.7 27.1C4.7 39.2 14.5 49 26.6 49h.2V26.6H4.7v.5z"/><path class="st1" d="M26.5 4.6c-12.1 0-21.9 9.8-21.9 21.9v.2H27V4.6h-.5z"/><path class="st2" d="M27.4 49c12.1 0 21.9-9.8 21.9-21.9v-.2H26.9V49h.5z"/><path class="st3" d="M26.2 27.1h1.4v20.5h-1.4z"/><path class="st4" d="M54.1 26.3H27.9V0h-1.6v26.3H0v1.6h26.3v26.2h1.6V27.9h26.2z"/><circle cx="27.1" cy="27.1" r="12.8"/><path d="M70.3 31.5h-8.5V20.8h1.9v9.1h5.6v-9.1h1.9v9.1h1v3.6h-1.9v-2zm3.3 0V20.8H81v1.7h-5.5v2.8h5.4V27h-5.4v3H81v1.7h-7.4zm16.8 0v-4.7h-5.6v4.7h-1.9V20.8h1.9v4.4h5.6v-4.4h1.9v10.7h-1.9zm6.7 0v-9.1h-3.3v-1.7h8.4v1.7H99v9.1h-1.9zm6.7 0V20.8h4.7c2.3 0 3.5 1.5 3.5 3.4 0 1.8-1.3 3.4-3.5 3.4h-2.8v4h-1.9zm6.3-7.4c0-1-.8-1.7-1.8-1.7h-2.6v3.4h2.6c1 0 1.8-.6 1.8-1.7zm7.6 7.4V20.8h4.7c2.3 0 3.5 1.5 3.5 3.4 0 1.8-1.3 3.4-3.5 3.4h-2.8v4h-1.9zm6.3-7.4c0-1-.8-1.7-1.8-1.7h-2.6v3.4h2.6c1.1 0 1.8-.6 1.8-1.7zm3.5 7.4V20.8h7.4v1.7h-5.5v2.8h5.4V27h-5.4v3h5.5v1.7h-7.4zm15.7 0l-3.6-4.5-.9 1.1v3.4h-1.9V20.8h1.9v5.1l4.2-5.1h2.3l-4.4 5.1 4.7 5.7h-2.3zm2.9-1.5c1.2 0 1.8-.6 2.1-3.7l.6-5.5h7.3v10.7h-1.9v-9.1h-3.7l-.5 4c-.5 4.6-1.9 5.3-4 5.3V30zm19.9 1.5l-.8-2.1h-4.9l-.8 2.1h-2.1l4.2-10.7h2.4l4.2 10.7H166zm-3.3-8.8l-1.9 5.1h3.9l-2-5.1zm15.9 8.8v-8l-3.3 8h-.8l-3.3-8v8h-1.9V20.8h2.7l2.9 7.1 2.9-7.1h2.7v10.7h-1.9zm6-10.7v4h2.8c2.2 0 3.5 1.5 3.5 3.4 0 1.8-1.3 3.4-3.5 3.4h-4.7V20.8h1.9zm0 5.6v3.4h2.6c1.1 0 1.8-.7 1.8-1.7s-.8-1.7-1.8-1.7h-2.6zm7.4 5.1V20.8h1.9v10.7H192z"/></svg>