<svg xmlns="http://www.w3.org/2000/svg" viewBox="0 0 82.8 96.4"><path d="M56.9 0c2.6.5 4.8 1.6 6.8 3.4 1.3 1.2 1.5 2.1.6 3.7-3.2 5.9-6.3 11.7-9.4 17.5-.2.3-.3.7-.5 1l.5.5c7.3 5.6 13.5 12.3 18.4 20.1 5.4 8.5 8.7 17.7 9.4 27.9.2 3.4.3 6.8-1 10-2.7 6.8-7.6 10.8-14.8 12.2-.3 0-.5.1-.8.2H16.8c-.8-.2-1.6-.3-2.4-.5C5.6 93.7-.1 86.2 0 77.1c.2-10 2.8-19.2 7.7-27.9 5-8.9 11.7-16.4 19.7-22.7.2-.2.4-.3.7-.5l.2-.2c-.2-.3-.3-.5-.5-.8-3.4-5.1-6.7-10.1-10.1-15.2-1.2-1.7-1-2.7.4-4.1 2.6-2.6 5.6-4.4 9.3-4.9 2.8-.4 5.6 0 8.3.8 1.7.5 3.3 1 4.9 1.6 1.7.7 3.2.5 4.8-.1 2.4-.9 4.9-1.7 7.4-2.6.5-.2 1-.2 1.5-.3.9-.2 1.7-.2 2.6-.2zM41.4 91.6c7.4 0 14.8-.1 22.2 0C72 91.8 78.3 85 78 77c-.2-7.1-1.6-14-4.6-20.5-5-11.1-12.8-20.1-22.5-27.4-.3-.2-.8-.3-1.2-.3H33.2c-.5 0-1.1.2-1.4.5-4.5 3.3-8.5 7-12.1 11.2C11.4 50.2 5.9 61.1 5 74c-.2 3.2-.4 6.5 1.1 9.5 2.7 5.4 7.1 8.1 13.1 8.1h22.2zM22.5 8.2c.1.1.1.3.2.4 3.3 4.9 6.5 9.9 9.8 14.8.3.5.7.6 1.3.6h15c.7 0 1.1-.3 1.4-.9 2.5-4.7 5-9.3 7.5-14 .5-1 1.1-2 1.6-3-2.2-1.7-4.6-1.6-7-.7-1.4.5-2.8 1.1-4.2 1.6-3.2 1.4-6.4 1.6-9.7.2-1.9-.8-3.9-1.2-5.9-1.7-3.7-.7-7.1 0-10 2.7z"/><path d="M44.3 77.5v2.8c0 1.8-1 3-2.4 3s-2.4-1.2-2.4-2.9v-2.9h-4.4c-1.6 0-2.7-1-2.8-2.4 0-1.4 1.1-2.5 2.7-2.5h9.3c2.2 0 3.6-1.3 3.8-3.3.2-2.1-1.3-3.9-3.5-3.9h-5.4c-4.1-.1-7.2-2.4-8.4-6.3-1.4-4.8 2.2-10 7.1-10.5.4 0 .9-.1 1.4-.2v-3.1c0-1.5 1-2.5 2.4-2.5 1.3 0 2.4 1 2.4 2.5v3.2h4.4c1.4 0 2.5 1 2.6 2.2.1 1.5-1 2.6-2.6 2.6H39c-2.1 0-3.6 1.7-3.6 3.8.1 1.8 1.5 3.3 3.3 3.4 1.8.1 3.6 0 5.4 0 3.6 0 6.4 1.6 8.1 4.8 2.5 4.8-.9 11.2-6.3 11.9-.4.1-1 .2-1.6.3z"/></svg>