<svg xmlns="http://www.w3.org/2000/svg" viewBox="0 0 67 102.8"><path d="M15.6 78.2c0-3.4-.1-6.8 0-10.2.1-2.4-.8-4.4-2.3-6.2-2.5-2.9-5.1-5.7-7.4-8.7C2.1 48.1.4 42.4.1 36.2c-.3-5.1.3-10.1 2.2-14.8 3.6-9 9.9-15.4 18.9-18.9C30.7-1.3 40.1-.8 49.1 4c8.7 4.6 14.4 11.8 16.8 21.4 2 8 1.5 16-2.6 23.3-1.4 2.4-3.3 4.6-5.1 6.8-1.4 1.7-3 3.2-4.4 4.9-1.8 2.1-2.6 4.6-2.6 7.3v20.8c0 4.9-2.7 7.6-7.5 7.5-1.1 0-1.7.1-2.2 1.3-1.3 3.3-4.8 5.5-8.2 5.4-3.8-.1-7-2.4-8.3-6-.2-.6-.6-.7-1.1-.7-1.5-.1-3-.1-4.4-.6-2.7-1.1-4-3.3-4-6.2 0-3.6.1-7.3.1-11zm4.5-.1h26.8V67.7c0-3.8 1.1-7.2 3.5-10.2 1.5-1.8 3.2-3.6 4.8-5.3 6.9-7.1 8.5-15.7 6.6-25-1.6-7.3-5.7-13-11.8-17.4-8.7-6.3-21.7-6.9-30.9-1.4C11 13.2 6 20.2 4.8 29.6c-1.1 8.4.5 16.1 6.1 22.7 1.9 2.3 4 4.4 5.9 6.7 1.8 2.1 3.1 4.6 3.2 7.5.1 3.4.1 6.8.1 10.2v1.4zm26.7 4.7H20.2c0 .2-.1.3-.1.4v5.2c0 2.5.7 3.2 3.1 3.2h21.1c1.4 0 2.4-.7 2.4-1.9.1-2.3.1-4.6.1-6.9zm-9.7 13.4h-7.4c2 2.8 5.7 2.8 7.4 0z"/><path d="M35.7 73.7h-4.4V46.8c0-.8-.3-1.3-.8-1.9l-7.2-7.2c-1.4-1.4-1.2-3.2.4-3.9 1.1-.5 2 0 2.8.8 2.3 2.3 4.6 4.6 6.9 7 .3-.3.5-.5.8-.7l6.3-6.3c1.4-1.4 3.3-1.1 3.9.6.4 1.1-.1 2-.9 2.7L36.4 45c-.6.6-.8 1.1-.8 1.9v25.6c.1.3.1.7.1 1.2z"/></svg>