<?xml version="1.0" encoding="utf-8"?>
<!-- Generator: Adobe Illustrator 19.0.0, SVG Export Plug-In . SVG Version: 6.00 Build 0)  -->
<svg version="1.1" id="sloy111" xmlns="http://www.w3.org/2000/svg" xmlns:xlink="http://www.w3.org/1999/xlink" x="0px" y="0px"
	 viewBox="0 0 193.8 54.1" style="enable-background:new 0 0 193.8 54.1;" xml:space="preserve">
<style type="text/css">
	.st0{fill:#FF00B4;}
	.st1{fill:#FFF100;}
	.st2{fill:#00ADEF;}
	.st3{fill:#E70F88;}
	.st4{fill:#020202;}
</style>
<g>
	<path class="st0" d="M4.7,27.1C4.7,39.2,14.5,49,26.6,49c0.1,0,0.1,0,0.2,0V26.6H4.7C4.7,26.8,4.7,26.9,4.7,27.1z"/>
	<path class="st1" d="M26.5,4.6c-12.1,0-21.9,9.8-21.9,21.9c0,0.1,0,0.1,0,0.2h22.4V4.6C26.8,4.6,26.6,4.6,26.5,4.6z"/>
	<path class="st2" d="M27.4,49c12.1,0,21.9-9.8,21.9-21.9c0-0.1,0-0.1,0-0.2H26.9V49C27.1,49,27.3,49,27.4,49z"/>
	<rect x="26.2" y="27.1" class="st3" width="1.4" height="20.5"/>
	<polygon class="st4" points="54.1,26.3 27.9,26.3 27.9,0 26.3,0 26.3,26.3 0,26.3 0,27.9 26.3,27.9 26.3,54.1 27.9,54.1 27.9,27.9 
		54.1,27.9 	"/>
	<circle cx="27.1" cy="27.1" r="12.8"/>
	<g>
		<g>
			<path d="M70.3,31.5h-8.5V20.8h1.9v9.1h5.6v-9.1h1.9v9.1h1v3.6h-1.9V31.5z"/>
			<path d="M73.6,31.5V20.8H81v1.7h-5.5v2.8h5.4v1.7h-5.4v3H81v1.7H73.6z"/>
			<path d="M90.4,31.5v-4.7h-5.6v4.7h-1.9V20.8h1.9v4.4h5.6v-4.4h1.9v10.7H90.4z"/>
			<path d="M97.1,31.5v-9.1h-3.3v-1.7h8.4v1.7H99v9.1H97.1z"/>
			<path d="M103.8,31.5V20.8h4.7c2.3,0,3.5,1.5,3.5,3.4c0,1.8-1.3,3.4-3.5,3.4h-2.8v4H103.8z M110.1,24.1c0-1-0.8-1.7-1.8-1.7h-2.6
				v3.4h2.6C109.3,25.8,110.1,25.2,110.1,24.1z"/>
			<path d="M117.7,31.5V20.8h4.7c2.3,0,3.5,1.5,3.5,3.4c0,1.8-1.3,3.4-3.5,3.4h-2.8v4H117.7z M124,24.1c0-1-0.8-1.7-1.8-1.7h-2.6
				v3.4h2.6C123.3,25.8,124,25.2,124,24.1z"/>
			<path d="M127.5,31.5V20.8h7.4v1.7h-5.5v2.8h5.4v1.7h-5.4v3h5.5v1.7H127.5z"/>
			<path d="M143.2,31.5l-3.6-4.5l-0.9,1.1v3.4h-1.9V20.8h1.9v5.1l4.2-5.1h2.3l-4.4,5.1l4.7,5.7H143.2z"/>
			<path d="M146.1,30c1.2,0,1.8-0.6,2.1-3.7l0.6-5.5h7.3v10.7h-1.9v-9.1h-3.7l-0.5,4c-0.5,4.6-1.9,5.3-4,5.3V30z"/>
			<path d="M166,31.5l-0.8-2.1h-4.9l-0.8,2.1h-2.1l4.2-10.7h2.4l4.2,10.7H166z M162.7,22.7l-1.9,5.1h3.9L162.7,22.7z"/>
			<path d="M178.6,31.5v-8l-3.3,8h-0.8l-3.3-8v8h-1.9V20.8h2.7l2.9,7.1l2.9-7.1h2.7v10.7H178.6z"/>
			<path d="M184.6,20.8v4h2.8c2.2,0,3.5,1.5,3.5,3.4c0,1.8-1.3,3.4-3.5,3.4h-4.7V20.8H184.6z M184.6,26.4v3.4h2.6
				c1.1,0,1.8-0.7,1.8-1.7c0-1-0.8-1.7-1.8-1.7H184.6z M192,31.5V20.8h1.9v10.7H192z"/>
		</g>
	</g>
</g>
<g>
</g>
<g>
</g>
<g>
</g>
<g>
</g>
<g>
</g>
<g>
</g>
</svg>
