<?xml version="1.0" encoding="utf-8"?>
<!-- Generator: Adobe Illustrator 19.0.0, SVG Export Plug-In . SVG Version: 6.00 Build 0)  -->
<svg version="1.1" id="Слой_1" xmlns="http://www.w3.org/2000/svg" xmlns:xlink="http://www.w3.org/1999/xlink" x="0px" y="0px"
	 viewBox="0 0 67 102.8" style="enable-background:new 0 0 67 102.8;" xml:space="preserve">
<path d="M15.6,78.2c0-3.4-0.1-6.8,0-10.2c0.1-2.4-0.8-4.4-2.3-6.2c-2.5-2.9-5.1-5.7-7.4-8.7c-3.8-5-5.5-10.7-5.8-16.9
	c-0.3-5.1,0.3-10.1,2.2-14.8c3.6-9,9.9-15.4,18.9-18.9C30.7-1.3,40.1-0.8,49.1,4c8.7,4.6,14.4,11.8,16.8,21.4c2,8,1.5,16-2.6,23.3
	c-1.4,2.4-3.3,4.6-5.1,6.8c-1.4,1.7-3,3.2-4.4,4.9c-1.8,2.1-2.6,4.6-2.6,7.3c0,6.9,0,13.9,0,20.8c0,4.9-2.7,7.6-7.5,7.5
	c-1.1,0-1.7,0.1-2.2,1.3c-1.3,3.3-4.8,5.5-8.2,5.4c-3.8-0.1-7-2.4-8.3-6c-0.2-0.6-0.6-0.7-1.1-0.7c-1.5-0.1-3-0.1-4.4-0.6
	c-2.7-1.1-4-3.3-4-6.2C15.5,85.6,15.6,81.9,15.6,78.2z M20.1,78.1c9,0,17.8,0,26.8,0c0-0.4,0-0.8,0-1.2c0-3.1,0-6.1,0-9.2
	c0-3.8,1.1-7.2,3.5-10.2c1.5-1.8,3.2-3.6,4.8-5.3c6.9-7.1,8.5-15.7,6.6-25C60.2,19.9,56.1,14.2,50,9.8c-8.7-6.3-21.7-6.9-30.9-1.4
	C11,13.2,6,20.2,4.8,29.6c-1.1,8.4,0.5,16.1,6.1,22.7c1.9,2.3,4,4.4,5.9,6.7c1.8,2.1,3.1,4.6,3.2,7.5c0.1,3.4,0.1,6.8,0.1,10.2
	C20.1,77.2,20.1,77.6,20.1,78.1z M46.8,82.8c-8.9,0-17.8,0-26.6,0c0,0.2-0.1,0.3-0.1,0.4c0,1.7,0,3.5,0,5.2c0,2.5,0.7,3.2,3.1,3.2
	c5.3,0,10.5,0,15.8,0c1.8,0,3.6,0,5.3,0c1.4,0,2.4-0.7,2.4-1.9C46.8,87.4,46.8,85.1,46.8,82.8z M37.1,96.2c-2.5,0-4.9,0-7.4,0
	C31.7,99,35.4,99,37.1,96.2z"/>
<path d="M35.7,73.7c-1.5,0-2.9,0-4.4,0c0-0.5,0-0.9,0-1.3c0-8.5,0-17.1,0-25.6c0-0.8-0.3-1.3-0.8-1.9c-2.4-2.4-4.8-4.8-7.2-7.2
	c-1.4-1.4-1.2-3.2,0.4-3.9c1.1-0.5,2,0,2.8,0.8c2.3,2.3,4.6,4.6,6.9,7c0.3-0.3,0.5-0.5,0.8-0.7c2.1-2.1,4.2-4.2,6.3-6.3
	c1.4-1.4,3.3-1.1,3.9,0.6c0.4,1.1-0.1,2-0.9,2.7c-2.4,2.4-4.7,4.7-7.1,7.1c-0.6,0.6-0.8,1.1-0.8,1.9c0,8.5,0,17.1,0,25.6
	C35.7,72.8,35.7,73.2,35.7,73.7z"/>
</svg>
