<?xml version="1.0" encoding="utf-8"?>
<!-- Generator: Adobe Illustrator 19.0.0, SVG Export Plug-In . SVG Version: 6.00 Build 0)  -->
<svg version="1.1" id="Слой_1" xmlns="http://www.w3.org/2000/svg" xmlns:xlink="http://www.w3.org/1999/xlink" x="0px" y="0px"
	 viewBox="0 0 82.8 96.4" style="enable-background:new 0 0 82.8 96.4;" xml:space="preserve">
<path d="M56.9,0c2.6,0.5,4.8,1.6,6.8,3.4c1.3,1.2,1.5,2.1,0.6,3.7C61.1,13,58,18.8,54.9,24.6c-0.2,0.3-0.3,0.7-0.5,1
	c0.2,0.2,0.4,0.4,0.5,0.5c7.3,5.6,13.5,12.3,18.4,20.1c5.4,8.5,8.7,17.7,9.4,27.9c0.2,3.4,0.3,6.8-1,10c-2.7,6.8-7.6,10.8-14.8,12.2
	c-0.3,0-0.5,0.1-0.8,0.2c-16.4,0-32.9,0-49.3,0c-0.8-0.2-1.6-0.3-2.4-0.5C5.6,93.7-0.1,86.2,0,77.1c0.2-10,2.8-19.2,7.7-27.9
	c5-8.9,11.7-16.4,19.7-22.7c0.2-0.2,0.4-0.3,0.7-0.5c0,0,0.1-0.1,0.2-0.2c-0.2-0.3-0.3-0.5-0.5-0.8c-3.4-5.1-6.7-10.1-10.1-15.2
	c-1.2-1.7-1-2.7,0.4-4.1c2.6-2.6,5.6-4.4,9.3-4.9c2.8-0.4,5.6,0,8.3,0.8c1.7,0.5,3.3,1,4.9,1.6c1.7,0.7,3.2,0.5,4.8-0.1
	c2.4-0.9,4.9-1.7,7.4-2.6c0.5-0.2,1-0.2,1.5-0.3C55.2,0,56,0,56.9,0z M41.4,91.6c7.4,0,14.8-0.1,22.2,0C72,91.8,78.3,85,78,77
	c-0.2-7.1-1.6-14-4.6-20.5c-5-11.1-12.8-20.1-22.5-27.4c-0.3-0.2-0.8-0.3-1.2-0.3c-5.5,0-11,0-16.5,0c-0.5,0-1.1,0.2-1.4,0.5
	c-4.5,3.3-8.5,7-12.1,11.2C11.4,50.2,5.9,61.1,5,74c-0.2,3.2-0.4,6.5,1.1,9.5c2.7,5.4,7.1,8.1,13.1,8.1C26.6,91.6,34,91.6,41.4,91.6
	z M22.5,8.2c0.1,0.1,0.1,0.3,0.2,0.4c3.3,4.9,6.5,9.9,9.8,14.8c0.3,0.5,0.7,0.6,1.3,0.6c5,0,10,0,15,0c0.7,0,1.1-0.3,1.4-0.9
	c2.5-4.7,5-9.3,7.5-14c0.5-1,1.1-2,1.6-3c-2.2-1.7-4.6-1.6-7-0.7c-1.4,0.5-2.8,1.1-4.2,1.6c-3.2,1.4-6.4,1.6-9.7,0.2
	c-1.9-0.8-3.9-1.2-5.9-1.7C28.8,4.8,25.4,5.5,22.5,8.2z"/>
<path d="M44.3,77.5c0,0.9,0,1.9,0,2.8c0,1.8-1,3-2.4,3c-1.4,0-2.4-1.2-2.4-2.9c0-0.9,0-1.9,0-2.9c-1.5,0-3,0-4.4,0
	c-1.6,0-2.7-1-2.8-2.4c0-1.4,1.1-2.5,2.7-2.5c3.1,0,6.2,0,9.3,0c2.2,0,3.6-1.3,3.8-3.3c0.2-2.1-1.3-3.9-3.5-3.9c-1.8,0-3.6,0-5.4,0
	c-4.1-0.1-7.2-2.4-8.4-6.3c-1.4-4.8,2.2-10,7.1-10.5c0.4,0,0.9-0.1,1.4-0.2c0-1.1,0-2.1,0-3.1c0-1.5,1-2.5,2.4-2.5
	c1.3,0,2.4,1,2.4,2.5c0,1,0,2.1,0,3.2c1.5,0,2.9,0,4.4,0c1.4,0,2.5,1,2.6,2.2c0.1,1.5-1,2.6-2.6,2.6c-3.2,0-6.3,0-9.5,0
	c-2.1,0-3.6,1.7-3.6,3.8c0.1,1.8,1.5,3.3,3.3,3.4c1.8,0.1,3.6,0,5.4,0c3.6,0,6.4,1.6,8.1,4.8c2.5,4.8-0.9,11.2-6.3,11.9
	C45.5,77.3,44.9,77.4,44.3,77.5z"/>
</svg>
