<?xml version="1.0" encoding="utf-8"?>
<!-- Generator: Adobe Illustrator 19.0.0, SVG Export Plug-In . SVG Version: 6.00 Build 0)  -->
<svg version="1.1" id="Слой_1" xmlns="http://www.w3.org/2000/svg" xmlns:xlink="http://www.w3.org/1999/xlink" x="0px" y="0px"
	 viewBox="0 0 54.1 54.1" style="enable-background:new 0 0 54.1 54.1;" xml:space="preserve">
<style type="text/css">
	.st0{fill:#FF00B4;}
	.st1{fill:#FFF100;}
	.st2{fill:#00ADEF;}
	.st3{fill:#E70F88;}
	.st4{fill:#020202;}
</style>
<g>
	<path class="st0" d="M4.7,27.1C4.7,39.2,14.5,49,26.6,49c0.1,0,0.1,0,0.2,0V26.6H4.7C4.7,26.8,4.7,26.9,4.7,27.1z"/>
	<path class="st1" d="M26.5,4.6c-12.1,0-21.9,9.8-21.9,21.9c0,0.1,0,0.1,0,0.2h22.4V4.6C26.8,4.6,26.6,4.6,26.5,4.6z"/>
	<path class="st2" d="M27.4,49c12.1,0,21.9-9.8,21.9-21.9c0-0.1,0-0.1,0-0.2H26.9V49C27.1,49,27.3,49,27.4,49z"/>
	<rect x="26.2" y="27.1" class="st3" width="1.4" height="20.5"/>
	<polygon class="st4" points="54.1,26.3 27.9,26.3 27.9,0 26.3,0 26.3,26.3 0,26.3 0,27.9 26.3,27.9 26.3,54.1 27.9,54.1 27.9,27.9 
		54.1,27.9 	"/>
	<circle cx="27.1" cy="27.1" r="12.8"/>
</g>
<g>
</g>
<g>
</g>
<g>
</g>
<g>
</g>
<g>
</g>
<g>
</g>
</svg>
